<?xml version="1.0" encoding="UTF-8" standalone="no"?>
<svg width="222px" height="429px" viewBox="0 0 222 429" version="1.1" xmlns="http://www.w3.org/2000/svg" xmlns:xlink="http://www.w3.org/1999/xlink">
    <!-- Generator: Sketch 3.8.3 (29802) - http://www.bohemiancoding.com/sketch -->
    <title>android</title>
    <desc>Created with Sketch.</desc>
    <defs></defs>
    <g id="Game" stroke="none" stroke-width="1" fill="none" fill-rule="evenodd">
        <g id="Artboard-21" transform="translate(-1005.000000, -386.000000)" fill="#FF8244">
            <g id="phones" transform="translate(761.000000, 386.000000)">
                <g id="android" transform="translate(244.000000, 0.000000)">
                    <path d="M0,31.0036036 C0,13.8807861 13.8870943,0 30.9995523,0 L191.000448,0 C208.121028,0 222,13.8782323 222,31.0036036 L222,397.996396 C222,415.119214 208.112906,429 191.000448,429 L30.9995523,429 C13.8789723,429 0,415.121768 0,397.996396 L0,31.0036036 Z M9,32 L213,32 L213,394 L9,394 L9,32 Z" id="Combined-Shape"></path>
                    <path d="M97.9707708,178.334638 C90.776323,182.35291 85.961725,189.683759 85.961725,198.06118 L135.364752,198.06118 C135.364752,189.704206 130.573628,182.388703 123.408345,178.364121 L127.156969,171.601424 C127.446855,171.078455 127.264922,170.423396 126.742531,170.13383 C126.223757,169.846269 125.56799,170.037499 125.278323,170.560073 L121.491154,177.392307 C118.221591,175.90588 114.547092,175.071653 110.663239,175.071653 C106.8012,175.071653 103.14617,175.896535 99.8904548,177.367322 L96.1171353,170.560073 C95.8274676,170.037499 95.1717005,169.846269 94.6529267,170.13383 C94.1305361,170.423396 93.9486029,171.078455 94.2384891,171.601424 L97.9707708,178.334638 Z M105.293344,240.670696 L105.293344,254.630468 C105.293344,257.595978 102.883126,260 99.9234501,260 C96.9577394,260 94.5535558,257.597178 94.5535558,254.630468 L94.5535558,240.670696 L92.4203081,240.670696 C88.8533311,240.670696 85.961725,237.780885 85.961725,234.242061 L85.961725,200.933479 L135.364752,200.933479 L135.364752,234.242061 C135.364752,237.792498 132.495099,240.670696 128.906169,240.670696 L126.772921,240.670696 L126.772921,254.630468 C126.772921,257.595978 124.362703,260 121.403027,260 C118.437316,260 116.033133,257.597178 116.033133,254.630468 L116.033133,240.670696 L105.293344,240.670696 Z M72,204.155053 C72,201.189543 74.4102182,198.785521 77.3698942,198.785521 C80.3356049,198.785521 82.7397885,201.188343 82.7397885,204.155053 L82.7397885,227.780996 C82.7397885,230.746507 80.3295703,233.150529 77.3698942,233.150529 C74.4041835,233.150529 72,230.747707 72,227.780996 L72,204.155053 Z M138.586689,203.081075 C138.586689,200.115564 140.996907,197.711542 143.956583,197.711542 C146.922294,197.711542 149.326477,200.114364 149.326477,203.081075 L149.326477,226.707017 C149.326477,229.672528 146.916259,232.07655 143.956583,232.07655 C140.990872,232.07655 138.586689,229.673728 138.586689,226.707017 L138.586689,203.081075 Z M98.8494712,191.267669 C100.628898,191.267669 102.071408,189.825159 102.071408,188.045732 C102.071408,186.266306 100.628898,184.823796 98.8494712,184.823796 C97.0700448,184.823796 95.6275347,186.266306 95.6275347,188.045732 C95.6275347,189.825159 97.0700448,191.267669 98.8494712,191.267669 Z M122.477006,191.267669 C124.256432,191.267669 125.698942,189.825159 125.698942,188.045732 C125.698942,186.266306 124.256432,184.823796 122.477006,184.823796 C120.697579,184.823796 119.255069,186.266306 119.255069,188.045732 C119.255069,189.825159 120.697579,191.267669 122.477006,191.267669 Z" id="Android-Logo"></path>
                </g>
            </g>
        </g>
    </g>
</svg>