<?xml version="1.0" encoding="UTF-8" standalone="no"?>
<svg width="160px" height="280px" viewBox="0 0 160 280" version="1.1" xmlns="http://www.w3.org/2000/svg" xmlns:xlink="http://www.w3.org/1999/xlink">
    <!-- Generator: Sketch 3.8.2 (29753) - http://www.bohemiancoding.com/sketch -->
    <title>Artboard 1</title>
    <desc>Created with Sketch.</desc>
    <defs></defs>
    <g id="Background" stroke="none" stroke-width="1" fill="none" fill-rule="evenodd">
        <g id="Artboard-1" fill="#EFEFEF">
            <path d="M25.6324611,24.3746076 C23.879063,24.371489 22.4549854,25.7967093 22.4518786,27.5552347 C22.4503252,29.3176585 23.8697427,30.7456076 25.6219757,30.7487263 C27.3757621,30.7518449 28.7998397,29.3270144 28.8021698,27.5669297 C28.8060533,25.8056754 27.3850825,24.3777263 25.6324611,24.3746076 L25.6324611,24.3746076 Z" id="Shape" transform="translate(25.627028, 27.561667) rotate(-45.000000) translate(-25.627028, -27.561667) "></path>
            <path d="M27.8958133,17.0683293 C22.6367842,17.059753 18.3657162,21.3342445 18.3567842,26.6137191 C18.3486288,31.8931937 27.8562016,42.5624649 27.8562016,42.5624649 C27.8562016,42.5624649 37.3975609,31.9236004 37.4041628,26.643736 C37.4127065,21.3646513 33.1563958,17.0772954 27.8958133,17.0683293 L27.8958133,17.0683293 Z M27.8697939,33.0026513 C24.3653278,32.996414 21.5257162,30.1373971 21.5327065,26.6191767 C21.5381434,23.0986174 24.3862987,20.2493462 27.8911531,20.2559733 C31.3995026,20.2610411 34.2367842,23.1184988 34.2309589,26.6390581 C34.2247453,30.1580581 31.3773667,33.0084988 27.8697939,33.0026513 L27.8697939,33.0026513 Z" id="Shape" transform="translate(27.880477, 29.815391) rotate(-45.000000) translate(-27.880477, -29.815391) "></path>
            <path d="M60.3099382,42.7868074 C58.5973168,36.1830786 56.6163459,31.8368583 52.0412003,30.5812142 C51.3437246,30.3901973 50.688579,30.2978074 50.0322683,30.2954685 C49.6377052,30.2954685 41.7145984,40.7967227 41.7145984,40.7967227 C41.7145984,40.7967227 33.8563459,30.2674007 33.465278,30.2674007 C32.809744,30.2662312 32.1514916,30.358621 31.4528508,30.5484685 C26.8703265,31.7881295 24.8761518,36.1277227 23.1460547,42.7275532 C21.1390644,50.3697905 21.6835304,55.4968413 24.6377052,56.7930278 C25.1184819,57.0058752 25.6237246,57.1134685 26.1417828,57.1134685 C28.7705207,57.1185363 31.1914916,54.3480108 32.960812,52.3244007 L33.4431421,51.7638244 C34.8854722,50.0774176 37.9017828,49.1125871 41.7173168,49.1180447 C45.8699382,49.1250617 48.4182877,49.9495532 49.9848896,51.794621 L50.4637246,52.3551973 C52.2241129,54.3827058 54.6353751,57.1579091 57.2672197,57.1618074 C57.7879964,57.1618074 58.2940158,57.0561634 58.770909,56.8468244 C61.7293557,55.5596041 62.2901324,50.4364515 60.3099382,42.7868074 L60.3099382,42.7868074 Z M36.7977052,43.8093329 L33.6858605,43.8042651 L33.680812,46.9303159 L30.9382877,46.923299 L30.9433362,43.7995871 L27.8322683,43.7945193 L27.8365401,41.0411464 L30.9479964,41.0469939 L30.953045,37.9240617 L33.6955692,37.9291295 L33.6905207,41.0516719 L36.8027537,41.0575193 L36.7977052,43.8093329 L36.7977052,43.8093329 Z M48.3293557,44.0362142 C47.3747925,44.0362142 46.5988702,43.2565532 46.5988702,42.29796 C46.5988702,41.3409261 47.3747925,40.5612651 48.3293557,40.5612651 C49.2835304,40.5612651 50.0594527,41.3409261 50.0594527,42.29796 C50.0594527,43.2565532 49.2835304,44.0362142 48.3293557,44.0362142 L48.3293557,44.0362142 Z M51.858676,47.5786041 C50.9041129,47.5786041 50.1281906,46.798943 50.1281906,45.8411295 C50.1281906,44.8833159 50.9041129,44.1036549 51.858676,44.1036549 C52.8132391,44.1036549 53.5895498,44.8833159 53.5895498,45.8411295 C53.5895498,46.798943 52.8132391,47.5786041 51.858676,47.5786041 L51.858676,47.5786041 Z M51.858676,40.4926549 C50.9041129,40.4926549 50.1281906,39.7137736 50.1281906,38.7551803 C50.1281906,37.7981464 50.9041129,37.0184854 51.858676,37.0184854 C52.8132391,37.0184854 53.5895498,37.7981464 53.5895498,38.7551803 C53.5895498,39.7137736 52.8132391,40.4926549 51.858676,40.4926549 L51.858676,40.4926549 Z M55.3883848,44.0362142 C54.4338217,44.0362142 53.6578993,43.2565532 53.6578993,42.29796 C53.6578993,41.3409261 54.4338217,40.5612651 55.3883848,40.5612651 C56.3425595,40.5612651 57.1188702,41.3409261 57.1188702,42.29796 C57.1188702,43.2565532 56.3425595,44.0362142 55.3883848,44.0362142 L55.3883848,44.0362142 Z" id="Shape" transform="translate(41.714598, 43.714599) rotate(-45.000000) translate(-41.714598, -43.714599) "></path>
            <path d="M26.0380527,164.780199 C24.2846546,164.777081 22.860577,166.202301 22.8574702,167.960826 C22.8559168,169.72325 24.2753342,171.151199 26.0275673,171.154318 C27.7813537,171.157436 29.2054313,169.732606 29.2077614,167.972521 C29.2116449,166.211267 27.7906741,164.783318 26.0380527,164.780199 L26.0380527,164.780199 Z" id="Shape" transform="translate(26.032619, 167.967259) rotate(-45.000000) translate(-26.032619, -167.967259) "></path>
            <path d="M28.3014049,157.473921 C23.0423757,157.465345 18.7713078,161.739836 18.7623757,167.019311 C18.7542204,172.298785 28.2617932,182.968056 28.2617932,182.968056 C28.2617932,182.968056 37.8031524,172.329192 37.8097544,167.049328 C37.8182981,161.770243 33.5619874,157.482887 28.3014049,157.473921 L28.3014049,157.473921 Z M28.2753855,173.408243 C24.7709194,173.402006 21.9313078,170.542989 21.9382981,167.024768 C21.943735,163.504209 24.7918903,160.654938 28.2967447,160.661565 C31.8050942,160.666633 34.6423757,163.52409 34.6365505,167.04465 C34.6303369,170.56365 31.7829583,173.41409 28.2753855,173.408243 L28.2753855,173.408243 Z" id="Shape" transform="translate(28.286069, 170.220982) rotate(-45.000000) translate(-28.286069, -170.220982) "></path>
            <path d="M60.7155298,183.192399 C59.0029084,176.58867 57.0219375,172.24245 52.4467919,170.986806 C51.7493162,170.795789 51.0941705,170.703399 50.4378599,170.70106 C50.0432968,170.70106 42.12019,181.202314 42.12019,181.202314 C42.12019,181.202314 34.2619375,170.672992 33.8708696,170.672992 C33.2153356,170.671823 32.5570832,170.764213 31.8584424,170.95406 C27.2759181,172.193721 25.2817434,176.533314 23.5516463,183.133145 C21.544656,190.775382 22.089122,195.902433 25.0432968,197.198619 C25.5240735,197.411467 26.0293162,197.51906 26.5473744,197.51906 C29.1761123,197.524128 31.5970832,194.753602 33.3664036,192.729992 L33.8487337,192.169416 C35.2910637,190.483009 38.3073744,189.518179 42.1229084,189.523636 C46.2755298,189.530653 48.8238793,190.355145 50.3904812,192.200213 L50.8693162,192.760789 C52.6297045,194.788297 55.0409667,197.563501 57.6728113,197.567399 C58.193588,197.567399 58.6996074,197.461755 59.1765006,197.252416 C62.1349472,195.965196 62.6957239,190.842043 60.7155298,183.192399 L60.7155298,183.192399 Z M37.2032968,184.214924 L34.0914521,184.209857 L34.0864036,187.335908 L31.3438793,187.328891 L31.3489278,184.205179 L28.2378599,184.200111 L28.2421317,181.446738 L31.353588,181.452585 L31.3586366,178.329653 L34.1011608,178.334721 L34.0961123,181.457263 L37.2083453,181.463111 L37.2032968,184.214924 L37.2032968,184.214924 Z M48.7349472,184.441806 C47.7803841,184.441806 47.0044618,183.662145 47.0044618,182.703552 C47.0044618,181.746518 47.7803841,180.966857 48.7349472,180.966857 C49.689122,180.966857 50.4650443,181.746518 50.4650443,182.703552 C50.4650443,183.662145 49.689122,184.441806 48.7349472,184.441806 L48.7349472,184.441806 Z M52.2642676,187.984196 C51.3097045,187.984196 50.5337822,187.204535 50.5337822,186.246721 C50.5337822,185.288908 51.3097045,184.509246 52.2642676,184.509246 C53.2188307,184.509246 53.9951414,185.288908 53.9951414,186.246721 C53.9951414,187.204535 53.2188307,187.984196 52.2642676,187.984196 L52.2642676,187.984196 Z M52.2642676,180.898246 C51.3097045,180.898246 50.5337822,180.119365 50.5337822,179.160772 C50.5337822,178.203738 51.3097045,177.424077 52.2642676,177.424077 C53.2188307,177.424077 53.9951414,178.203738 53.9951414,179.160772 C53.9951414,180.119365 53.2188307,180.898246 52.2642676,180.898246 L52.2642676,180.898246 Z M55.7939764,184.441806 C54.8394133,184.441806 54.0634909,183.662145 54.0634909,182.703552 C54.0634909,181.746518 54.8394133,180.966857 55.7939764,180.966857 C56.7481511,180.966857 57.5244618,181.746518 57.5244618,182.703552 C57.5244618,183.662145 56.7481511,184.441806 55.7939764,184.441806 L55.7939764,184.441806 Z" id="Shape" transform="translate(42.120189, 184.120190) rotate(-45.000000) translate(-42.120189, -184.120190) "></path>
            <path d="M105.632461,94.3746076 C103.879063,94.371489 102.454985,95.7967093 102.451879,97.5552347 C102.450325,99.3176585 103.869743,100.745608 105.621976,100.748726 C107.375762,100.751845 108.79984,99.3270144 108.80217,97.5669297 C108.806053,95.8056754 107.385082,94.3777263 105.632461,94.3746076 L105.632461,94.3746076 Z" id="Shape" transform="translate(105.627028, 97.561667) rotate(-45.000000) translate(-105.627028, -97.561667) "></path>
            <path d="M107.895813,87.0683293 C102.636784,87.059753 98.3657162,91.3342445 98.3567842,96.6137191 C98.3486288,101.893194 107.856202,112.562465 107.856202,112.562465 C107.856202,112.562465 117.397561,101.9236 117.404163,96.643736 C117.412706,91.3646513 113.156396,87.0772954 107.895813,87.0683293 L107.895813,87.0683293 Z M107.869794,103.002651 C104.365328,102.996414 101.525716,100.137397 101.532706,96.6191767 C101.538143,93.0986174 104.386299,90.2493462 107.891153,90.2559733 C111.399503,90.2610411 114.236784,93.1184988 114.230959,96.6390581 C114.224745,100.158058 111.377367,103.008499 107.869794,103.002651 L107.869794,103.002651 Z" id="Shape" transform="translate(107.880477, 99.815391) rotate(-45.000000) translate(-107.880477, -99.815391) "></path>
            <path d="M140.309938,112.786807 C138.597317,106.183079 136.616346,101.836858 132.0412,100.581214 C131.343725,100.390197 130.688579,100.297807 130.032268,100.295468 C129.637705,100.295468 121.714598,110.796723 121.714598,110.796723 C121.714598,110.796723 113.856346,100.267401 113.465278,100.267401 C112.809744,100.266231 112.151492,100.358621 111.452851,100.548468 C106.870327,101.788129 104.876152,106.127723 103.146055,112.727553 C101.139064,120.36979 101.68353,125.496841 104.637705,126.793028 C105.118482,127.005875 105.623725,127.113468 106.141783,127.113468 C108.770521,127.118536 111.191492,124.348011 112.960812,122.324401 L113.443142,121.763824 C114.885472,120.077418 117.901783,119.112587 121.717317,119.118045 C125.869938,119.125062 128.418288,119.949553 129.98489,121.794621 L130.463725,122.355197 C132.224113,124.382706 134.635375,127.157909 137.26722,127.161807 C137.787996,127.161807 138.294016,127.056163 138.770909,126.846824 C141.729356,125.559604 142.290132,120.436452 140.309938,112.786807 L140.309938,112.786807 Z M116.797705,113.809333 L113.685861,113.804265 L113.680812,116.930316 L110.938288,116.923299 L110.943336,113.799587 L107.832268,113.794519 L107.83654,111.041146 L110.947996,111.046994 L110.953045,107.924062 L113.695569,107.929129 L113.690521,111.051672 L116.802754,111.057519 L116.797705,113.809333 L116.797705,113.809333 Z M128.329356,114.036214 C127.374793,114.036214 126.59887,113.256553 126.59887,112.29796 C126.59887,111.340926 127.374793,110.561265 128.329356,110.561265 C129.28353,110.561265 130.059453,111.340926 130.059453,112.29796 C130.059453,113.256553 129.28353,114.036214 128.329356,114.036214 L128.329356,114.036214 Z M131.858676,117.578604 C130.904113,117.578604 130.128191,116.798943 130.128191,115.841129 C130.128191,114.883316 130.904113,114.103655 131.858676,114.103655 C132.813239,114.103655 133.58955,114.883316 133.58955,115.841129 C133.58955,116.798943 132.813239,117.578604 131.858676,117.578604 L131.858676,117.578604 Z M131.858676,110.492655 C130.904113,110.492655 130.128191,109.713774 130.128191,108.75518 C130.128191,107.798146 130.904113,107.018485 131.858676,107.018485 C132.813239,107.018485 133.58955,107.798146 133.58955,108.75518 C133.58955,109.713774 132.813239,110.492655 131.858676,110.492655 L131.858676,110.492655 Z M135.388385,114.036214 C134.433822,114.036214 133.657899,113.256553 133.657899,112.29796 C133.657899,111.340926 134.433822,110.561265 135.388385,110.561265 C136.34256,110.561265 137.11887,111.340926 137.11887,112.29796 C137.11887,113.256553 136.34256,114.036214 135.388385,114.036214 L135.388385,114.036214 Z" id="Shape" transform="translate(121.714598, 113.714599) rotate(-45.000000) translate(-121.714598, -113.714599) "></path>
            <path d="M105.632461,234.374608 C103.879063,234.371489 102.454985,235.796709 102.451879,237.555235 C102.450325,239.317658 103.869743,240.745608 105.621976,240.748726 C107.375762,240.751845 108.79984,239.327014 108.80217,237.56693 C108.806053,235.805675 107.385082,234.377726 105.632461,234.374608 L105.632461,234.374608 Z" id="Shape" transform="translate(105.627028, 237.561667) rotate(-45.000000) translate(-105.627028, -237.561667) "></path>
            <path d="M107.895813,227.068329 C102.636784,227.059753 98.3657162,231.334245 98.3567842,236.613719 C98.3486288,241.893194 107.856202,252.562465 107.856202,252.562465 C107.856202,252.562465 117.397561,241.9236 117.404163,236.643736 C117.412706,231.364651 113.156396,227.077295 107.895813,227.068329 L107.895813,227.068329 Z M107.869794,243.002651 C104.365328,242.996414 101.525716,240.137397 101.532706,236.619177 C101.538143,233.098617 104.386299,230.249346 107.891153,230.255973 C111.399503,230.261041 114.236784,233.118499 114.230959,236.639058 C114.224745,240.158058 111.377367,243.008499 107.869794,243.002651 L107.869794,243.002651 Z" id="Shape" transform="translate(107.880477, 239.815391) rotate(-45.000000) translate(-107.880477, -239.815391) "></path>
            <path d="M140.309938,252.786807 C138.597317,246.183079 136.616346,241.836858 132.0412,240.581214 C131.343725,240.390197 130.688579,240.297807 130.032268,240.295468 C129.637705,240.295468 121.714598,250.796723 121.714598,250.796723 C121.714598,250.796723 113.856346,240.267401 113.465278,240.267401 C112.809744,240.266231 112.151492,240.358621 111.452851,240.548468 C106.870327,241.788129 104.876152,246.127723 103.146055,252.727553 C101.139064,260.36979 101.68353,265.496841 104.637705,266.793028 C105.118482,267.005875 105.623725,267.113468 106.141783,267.113468 C108.770521,267.118536 111.191492,264.348011 112.960812,262.324401 L113.443142,261.763824 C114.885472,260.077418 117.901783,259.112587 121.717317,259.118045 C125.869938,259.125062 128.418288,259.949553 129.98489,261.794621 L130.463725,262.355197 C132.224113,264.382706 134.635375,267.157909 137.26722,267.161807 C137.787996,267.161807 138.294016,267.056163 138.770909,266.846824 C141.729356,265.559604 142.290132,260.436452 140.309938,252.786807 L140.309938,252.786807 Z M116.797705,253.809333 L113.685861,253.804265 L113.680812,256.930316 L110.938288,256.923299 L110.943336,253.799587 L107.832268,253.794519 L107.83654,251.041146 L110.947996,251.046994 L110.953045,247.924062 L113.695569,247.929129 L113.690521,251.051672 L116.802754,251.057519 L116.797705,253.809333 L116.797705,253.809333 Z M128.329356,254.036214 C127.374793,254.036214 126.59887,253.256553 126.59887,252.29796 C126.59887,251.340926 127.374793,250.561265 128.329356,250.561265 C129.28353,250.561265 130.059453,251.340926 130.059453,252.29796 C130.059453,253.256553 129.28353,254.036214 128.329356,254.036214 L128.329356,254.036214 Z M131.858676,257.578604 C130.904113,257.578604 130.128191,256.798943 130.128191,255.841129 C130.128191,254.883316 130.904113,254.103655 131.858676,254.103655 C132.813239,254.103655 133.58955,254.883316 133.58955,255.841129 C133.58955,256.798943 132.813239,257.578604 131.858676,257.578604 L131.858676,257.578604 Z M131.858676,250.492655 C130.904113,250.492655 130.128191,249.713774 130.128191,248.75518 C130.128191,247.798146 130.904113,247.018485 131.858676,247.018485 C132.813239,247.018485 133.58955,247.798146 133.58955,248.75518 C133.58955,249.713774 132.813239,250.492655 131.858676,250.492655 L131.858676,250.492655 Z M135.388385,254.036214 C134.433822,254.036214 133.657899,253.256553 133.657899,252.29796 C133.657899,251.340926 134.433822,250.561265 135.388385,250.561265 C136.34256,250.561265 137.11887,251.340926 137.11887,252.29796 C137.11887,253.256553 136.34256,254.036214 135.388385,254.036214 L135.388385,254.036214 Z" id="Shape" transform="translate(121.714598, 253.714599) rotate(-45.000000) translate(-121.714598, -253.714599) "></path>
        </g>
    </g>
</svg>