<?xml version="1.0" encoding="UTF-8" standalone="no"?>
<svg width="69px" height="100px" viewBox="0 0 69 100" version="1.1" xmlns="http://www.w3.org/2000/svg" xmlns:xlink="http://www.w3.org/1999/xlink">
    <!-- Generator: Sketch 3.8.3 (29802) - http://www.bohemiancoding.com/sketch -->
    <title>chest</title>
    <desc>Created with Sketch.</desc>
    <defs></defs>
    <g id="Game" stroke="none" stroke-width="1" fill="none" fill-rule="evenodd">
        <g id="Artboard-21" transform="translate(-997.000000, -451.000000)" fill="#FF8244">
            <g id="chest" transform="translate(997.279570, 451.000000)">
                <path d="M14.2857143,57.1428571 L54.2857143,57.1428571 L54.2857143,57.1428571 L14.2857143,57.1428571 L14.2857143,57.1428571 Z M2.85714286,68.5714286 L2.85714286,85.7142857 L-2.27373675e-13,85.7142857 L-2.27373675e-13,100 L14.2857143,100 L14.2857143,97.1428571 L54.2857143,97.1428571 L54.2857143,100 L68.5714286,100 L68.5714286,85.7142857 L65.7142857,85.7142857 L65.7142857,68.5714286 L68.5714286,68.5714286 L68.5714286,54.2857143 L65.3288678,54.2857143 L63.5543173,37.1428571 L5.58370524,37.1428571 L3.36910075,54.2857143 L-2.25597319e-13,54.2857143 L-2.27373675e-13,68.5714286 L2.85714286,68.5714286 Z M37.4701688,76.1739947 C38.9960505,75.1480168 40,73.4055366 40,71.4285714 C40,68.2726586 37.4416271,65.7142857 34.2857143,65.7142857 C31.1298014,65.7142857 28.5714286,68.2726586 28.5714286,71.4285714 C28.5714286,73.5519841 29.7296262,75.4048853 31.448754,76.3900075 L28.5714286,88.5714286 L40,88.5714286 L37.4701688,76.1739947 Z M31.4285714,0 L37.1428571,0 L37.1428571,22.8571429 L31.4285714,22.8571429 L31.4285714,0 Z M60.7655691,5.71428571 L65.7142857,8.57142857 L54.2857143,28.3662949 L49.3369977,25.5091521 L60.7655691,5.71428571 Z M2.85714286,8.57142857 L7.80585945,5.71428571 L19.2344309,25.5091521 L14.2857143,28.3662949 L2.85714286,8.57142857 Z" id="Combined-Shape"></path>
            </g>
        </g>
    </g>
</svg>