<?xml version="1.0" encoding="UTF-8" standalone="no"?>
<svg width="208px" height="429px" viewBox="0 0 208 429" version="1.1" xmlns="http://www.w3.org/2000/svg" xmlns:xlink="http://www.w3.org/1999/xlink">
    <!-- Generator: Sketch 3.8.3 (29802) - http://www.bohemiancoding.com/sketch -->
    <title>ios</title>
    <desc>Created with Sketch.</desc>
    <defs></defs>
    <g id="Game" stroke="none" stroke-width="1" fill="none" fill-rule="evenodd">
        <g id="Artboard-21" transform="translate(-761.000000, -386.000000)" fill="#FF8244">
            <g id="phones" transform="translate(761.000000, 386.000000)">
                <g id="ios">
                    <path d="M0,29.0026084 C0,12.9849101 12.9916651,0 29.0035644,0 L178.996436,0 C195.014662,0 208,12.985291 208,29.0026084 L208,399.997392 C208,416.01509 195.008335,429 178.996436,429 L29.0035644,429 C12.9853381,429 0,416.014709 0,399.997392 L0,29.0026084 Z M11,50 L197,50 L197,379 L11,379 L11,50 Z" id="Combined-Shape"></path>
                    <path d="M140.219979,240.137325 C138.858909,243.281674 137.247847,246.176031 135.381236,248.837062 C132.836869,252.46473 130.753598,254.975765 129.148091,256.370167 C126.659278,258.658987 123.992692,259.831174 121.137222,259.897839 C119.087284,259.897839 116.615137,259.314523 113.737446,258.131225 C110.850311,256.953483 108.197058,256.370167 105.77102,256.370167 C103.226653,256.370167 100.497846,256.953483 97.5790456,258.131225 C94.6558006,259.314523 92.3008718,259.931171 90.5003706,259.99228 C87.7621201,260.108943 85.0327581,258.903424 82.308396,256.370167 C80.5695597,254.853547 78.3946254,252.253625 75.7891486,248.570403 C72.9936775,244.637189 70.6954136,240.076215 68.8949125,234.876373 C66.9666375,229.259876 66,223.821151 66,218.555755 C66,212.52427 67.3032939,207.322205 69.9137706,202.962893 C71.9653753,199.461332 74.6947372,196.699193 78.1107451,194.671477 C81.526753,192.64376 85.2177525,191.610458 89.1926324,191.544349 C91.3675666,191.544349 94.2197027,192.217106 97.76404,193.539289 C101.298378,194.865915 103.567753,195.538673 104.562723,195.538673 C105.30659,195.538673 107.827625,194.75203 112.101384,193.183744 C116.142929,191.729343 119.553937,191.127139 122.348297,191.364354 C129.92029,191.975447 135.609007,194.960357 139.392226,200.337972 C132.620209,204.441181 129.27031,210.18823 129.336975,217.560785 C129.398084,223.303389 131.481354,228.082133 135.575675,231.876463 C137.431174,233.637521 139.503334,234.998591 141.80882,235.965229 C141.308835,237.415185 140.781073,238.804032 140.219979,240.137325 L140.219979,240.137325 Z M122.853837,171.800501 C122.853837,176.301532 121.209442,180.504127 117.931764,184.394009 C113.976328,189.018314 109.192028,191.690456 104.003851,191.268802 C103.937742,190.728818 103.89941,190.160502 103.89941,189.563298 C103.89941,185.242317 105.780464,180.618012 109.120919,176.837016 C110.788646,174.922629 112.909693,173.330844 115.481838,172.061049 C118.048427,170.810198 120.476131,170.118441 122.759396,170 C122.82606,170.601704 122.853837,171.203464 122.853837,171.800446 L122.853837,171.800501 Z" id="Apple-Logo"></path>
                </g>
            </g>
        </g>
    </g>
</svg>