<?xml version="1.0" encoding="UTF-8" standalone="no"?>
<svg width="75px" height="100px" viewBox="0 0 75 100" version="1.1" xmlns="http://www.w3.org/2000/svg" xmlns:xlink="http://www.w3.org/1999/xlink">
    <!-- Generator: Sketch 3.8.3 (29802) - http://www.bohemiancoding.com/sketch -->
    <title>local</title>
    <desc>Created with Sketch.</desc>
    <defs></defs>
    <g id="Game" stroke="none" stroke-width="1" fill="none" fill-rule="evenodd">
        <g id="Artboard-21" transform="translate(-765.000000, -451.000000)" fill="#FF8244">
            <g id="local" transform="translate(765.000000, 451.000000)">
                <path d="M3.0828607,51.8394602 C8.8052657,68.6250681 37.0967742,100 37.0967742,100 C37.0967742,100 65.3657847,68.6250681 71.0959038,51.8732185 C72.7351936,47.0807987 74.1935484,42.311274 74.1935484,37.0345778 C74.1935484,16.5809453 57.5847568,0 37.0967742,0 C16.6087915,0 0,16.5809453 0,37.0345778 C0,42.2982072 1.45246156,47.0569883 3.0828607,51.8394602 Z M37.0967742,61.2903226 C50.458502,61.2903226 61.2903226,50.458502 61.2903226,37.0967742 C61.2903226,23.7350464 50.458502,12.9032258 37.0967742,12.9032258 C23.7350464,12.9032258 12.9032258,23.7350464 12.9032258,37.0967742 C12.9032258,50.458502 23.7350464,61.2903226 37.0967742,61.2903226 Z M25.8064561,37.0739878 C25.8009325,43.3174551 30.8481523,48.3760307 37.0788105,48.3870787 C43.3149924,48.3981266 48.3787831,43.3505989 48.3870685,37.1154176 C48.4008776,30.8760933 43.3481342,25.8175176 37.1160951,25.8064697 C30.8812941,25.7954218 25.8175034,30.8443305 25.8064561,37.0739878 Z" id="Combined-Shape"></path>
            </g>
        </g>
    </g>
</svg>