<?xml version="1.0" encoding="UTF-8" standalone="no"?>
<svg width="519px" height="65px" viewBox="0 0 519 65" version="1.1" xmlns="http://www.w3.org/2000/svg" xmlns:xlink="http://www.w3.org/1999/xlink">
    <!-- Generator: Sketch 3.8.3 (29802) - http://www.bohemiancoding.com/sketch -->
    <title>Logo</title>
    <desc>Created with Sketch.</desc>
    <defs></defs>
    <g id="Colour-Experimentation" stroke="none" stroke-width="1" fill="none" fill-rule="evenodd">
        <g id="Colour" transform="translate(-441.000000, -103.000000)">
            <g id="Logo" transform="translate(441.000000, 103.000000)">
                <path d="M290.547,6.707 L283.93,6.707 L283.93,0.162 L243.333,0.115 L243.333,6.731 L236.717,6.731 L236.717,0.115 L197.696,0.115 L197.696,6.731 L191.079,6.731 L191.079,0.115 L170.894,0.115 L170.894,6.697 L164.101,6.697 L164.101,0.115 L125.582,0.115 L125.582,6.731 L118.966,6.731 L118.966,0.115 L92.239,0.115 L92.239,6.731 L86.014,6.731 L85.972,6.731 L79.908,6.731 L79.908,0.115 L39.923,0.115 L39.923,25.889 L26.25,25.889 L26.389,6.766 L19.738,6.766 L19.738,0.115 L0.102,0.115 L0.102,56.499 L6.372,56.499 L6.372,63.082 L40.485,63.082 L40.485,56.392 L47.176,56.392 L47.176,63.082 L79.908,63.082 L79.908,56.392 L86.972,56.392 L86.972,63.082 L97.569,63.082 L97.569,56.392 L104.262,56.392 L104.262,63.082 L124.262,63.082 L124.262,56.392 L130.955,56.392 L130.955,63.082 L141.468,63.082 L141.468,56.392 L164.18,56.392 L164.18,49.712 L170.87,49.712 L170.87,63.082 L191.079,63.082 L191.079,56.392 L197.772,56.392 L197.772,63.075 L206.73,63.046 L208.386,63.042 L208.386,56.392 L215.042,56.392 L218.456,56.392 L221.731,56.392 L221.731,63.019 L236.715,62.998 L236.715,56.392 L243.407,56.392 L243.407,62.976 L283.941,62.939 L283.941,56.387 L290.552,56.387 L290.547,6.707 Z M518.254,7.458 L511.562,7.458 L511.562,1.071 L469.836,1.003 L469.836,7.458 L463.146,7.458 L463.146,0.994 L423.456,0.933 L423.456,7.458 L416.763,7.458 L416.763,0.923 L382.031,0.871 L382.031,7.458 L375.336,7.458 L375.336,0.861 L319.759,0.776 L319.759,7.458 L313.069,7.458 L313.069,31.981 L319.935,32.007 L319.949,57.762 L331.463,57.762 L331.463,64.376 L348.81,64.388 L348.81,38.151 L355.426,38.151 L355.426,57.813 L362.005,57.813 L362.005,64.397 L375.642,64.408 L375.642,57.813 L382.256,57.813 L382.256,64.412 L423.769,64.44 L423.769,57.965 L430.386,57.965 L430.386,64.444 L463.959,64.47 L463.959,57.965 L470.574,57.965 L470.574,64.474 L483.436,64.485 L483.436,57.965 L499.594,57.965 L499.594,64.493 L512.17,64.503 L512.17,57.893 L518.162,57.893 L518.254,7.458 Z" id="Combined-Shape" fill="#323232"></path>
                <path d="M236.715,43.698 L236.715,49.649 L231.917,49.649 L226.003,49.649 L226.003,43.698 L226.003,38.684 L214.158,38.796 L214.12,30.156 L208.329,30.156 L208.329,36.06 L208.329,37.784 L208.329,43.698 L208.329,49.649 L202.387,49.649 L197.654,49.649 L197.654,43.698 L197.654,37.784 L197.654,31.852 L197.654,25.938 L197.654,19.987 L197.654,14.064 L197.654,6.708 L208.329,6.708 L208.329,15.883 L220.034,15.751 L220.062,25.938 L226.003,25.938 L226.003,19.987 L226.003,14.064 L226.003,6.708 L236.715,6.708 L236.715,14.064 L236.715,19.987 L236.715,25.938 L236.715,31.852 L236.715,37.784 L236.715,43.698 Z M39.923,38.952 L19.635,38.952 L19.635,6.771 L6.996,6.771 L6.996,49.482 L39.923,49.482 L39.923,38.952 Z M79.908,38.952 L57.707,38.952 L57.707,33.355 L71.312,33.355 L71.312,22.823 L57.707,22.823 L57.707,17.228 L79.739,17.228 L79.739,6.694 L47.176,6.694 L47.176,49.482 L79.908,49.482 L79.908,38.952 Z M440.917,34.371 L454.523,34.371 L454.523,23.839 L440.917,23.839 L440.917,18.244 L462.949,18.244 L462.949,7.711 L430.386,7.711 L430.386,50.5 L464.004,50.5 L464.004,39.967 L440.917,39.967 L440.917,34.371 Z M178.441,6.589 L191.079,6.589 L191.079,49.482 L178.441,49.482 L178.441,6.589 Z M362.7,7.87 L375.337,7.87 L375.337,50.342 L362.7,50.342 L362.7,7.87 Z M283.622,23.128 L283.622,11.985 L278.355,11.985 L278.355,6.742 L248.958,6.742 L248.958,11.985 L243.857,11.938 L243.857,44.367 L248.958,44.415 L248.958,49.53 L278.355,49.53 L278.355,44.459 L283.622,44.459 L283.622,33.315 L283.596,33.315 L283.596,26.437 L267.178,26.437 L267.178,34.342 L273.089,34.342 L273.089,38.998 L255.516,38.998 L255.516,17.274 L273.089,17.274 L273.089,23.128 L283.622,23.128 Z M319.759,18.25 L331.545,18.25 L331.545,50.342 L342.182,50.342 L342.182,18.25 L355.392,18.25 L355.392,7.614 L319.759,7.614 L319.759,18.25 Z M416.75,7.711 L387.354,7.711 L387.354,12.955 L383.381,12.955 L383.381,45.385 L387.354,45.385 L387.354,50.5 L416.75,50.5 L416.75,45.429 L422.017,45.429 L422.017,34.285 L421.992,34.285 L421.992,27.407 L405.574,27.407 L405.574,35.311 L411.487,35.311 L411.487,39.967 L393.911,39.967 L393.911,18.244 L411.487,18.244 L411.487,24.098 L422.017,24.098 L422.017,12.955 L416.75,12.955 L416.75,7.711 Z" id="Combined-Shape" fill="#FFFFFF"></path>
                <path d="M97.506,38.537 L113.729,38.537 L113.729,49.482 L124.262,49.482 L124.262,17.052 L118.995,17.052 L118.995,6.694 L92.239,6.694 L92.239,17.052 L86.972,17.052 L86.972,49.482 L97.506,49.482 L97.506,38.537 L97.506,38.537 Z M97.506,17.228 L113.729,17.228 L113.729,28.001 L97.506,28.001 L97.506,17.228 L97.506,17.228 Z" id="Shape" fill="#FFFFFF"></path>
                <path d="M141.49,38.537 L164.114,38.537 L164.114,30.345 L170.87,30.345 L170.87,15.822 L164.114,15.822 L164.114,6.695 L136.224,6.695 L136.224,17.053 L130.956,17.053 L130.956,49.483 L141.491,49.483 L141.491,38.537 L141.49,38.537 Z M141.49,17.228 L157.932,17.228 L157.932,28.001 L141.49,28.001 L141.49,17.228 L141.49,17.228 Z" id="Shape" fill="#FFFFFF"></path>
                <path d="M504.775,7.614 L470.57,7.614 L470.57,7.87 L470.57,18.25 L470.57,27.074 L470.57,39.715 L470.57,50.341 L483.211,50.341 L483.211,39.715 L499.459,39.715 L499.459,50.341 L510.096,50.341 L510.096,33.395 L504.289,33.395 L504.289,28.711 L510.096,28.711 L510.096,12.297 L504.776,12.297 L504.776,7.614 L504.775,7.614 Z M483.211,28.711 L483.211,18.25 L499.459,18.25 L499.459,28.71 L483.211,28.71 L483.211,28.711 Z" id="Shape" fill="#FFFFFF"></path>
            </g>
        </g>
    </g>
</svg>