<?xml version="1.0" encoding="UTF-8" standalone="no"?>
<svg width="50px" height="51px" viewBox="0 0 50 51" version="1.1" xmlns="http://www.w3.org/2000/svg" xmlns:xlink="http://www.w3.org/1999/xlink">
    <!-- Generator: Sketch 3.8.3 (29802) - http://www.bohemiancoding.com/sketch -->
    <title>pdf</title>
    <desc>Created with Sketch.</desc>
    <defs></defs>
    <g id="Game" stroke="none" stroke-width="1" fill="none" fill-rule="evenodd">
        <g id="Artboard-22-Copy" transform="translate(-189.000000, -249.000000)">
            <g id="pdf" transform="translate(189.000000, 249.000000)">
                <rect id="Rectangle-1663" fill="#474747" x="0" y="0" width="50" height="51" rx="5"></rect>
                <path d="M13.0576172,28.1621094 C13.0576172,27.8339827 13.1455069,27.5859383 13.3212891,27.4179688 C13.4970712,27.2499992 13.752928,27.1660156 14.0888672,27.1660156 C14.4130876,27.1660156 14.6640616,27.2519523 14.8417969,27.4238281 C15.0195321,27.595704 15.1083984,27.8417953 15.1083984,28.1621094 C15.1083984,28.4707047 15.0185556,28.7138663 14.8388672,28.8916016 C14.6591788,29.0693368 14.4091813,29.1582031 14.0888672,29.1582031 C13.7607405,29.1582031 13.5068368,29.0712899 13.3271484,28.8974609 C13.14746,28.7236319 13.0576172,28.4785172 13.0576172,28.1621094 L13.0576172,28.1621094 Z M20.3291016,29.1171875 C19.5595665,29.1171875 18.9560569,28.8378934 18.5185547,28.2792969 L18.4248047,28.2792969 C18.487305,28.8261746 18.5185547,29.1425777 18.5185547,29.2285156 L18.5185547,31.8828125 L16.7314453,31.8828125 L16.7314453,22.4492188 L18.1845703,22.4492188 L18.4365234,23.2988281 L18.5185547,23.2988281 C18.9365255,22.6503874 19.55566,22.3261719 20.3759766,22.3261719 C21.1494179,22.3261719 21.7548806,22.624997 22.1923828,23.2226562 C22.629885,23.8203155 22.8486328,24.6503853 22.8486328,25.7128906 C22.8486328,26.4121129 22.7460948,27.0195287 22.5410156,27.5351562 C22.3359365,28.0507838 22.0439472,28.443358 21.6650391,28.7128906 C21.2861309,28.9824232 20.8408229,29.1171875 20.3291016,29.1171875 L20.3291016,29.1171875 Z M19.8017578,23.7558594 C19.3603494,23.7558594 19.038087,23.8916002 18.8349609,24.1630859 C18.6318349,24.4345717 18.5263672,24.8828094 18.5185547,25.5078125 L18.5185547,25.7011719 C18.5185547,26.4043004 18.6230458,26.9082016 18.8320312,27.2128906 C19.0410167,27.5175796 19.372068,27.6699219 19.8251953,27.6699219 C20.6259806,27.6699219 21.0263672,27.0097722 21.0263672,25.6894531 C21.0263672,25.0449187 20.9277354,24.561525 20.7304688,24.2392578 C20.5332021,23.9169906 20.2236349,23.7558594 19.8017578,23.7558594 L19.8017578,23.7558594 Z M26.3994141,29.1171875 C25.629879,29.1171875 25.0253928,28.8183624 24.5859375,28.2207031 C24.1464822,27.6230439 23.9267578,26.7949272 23.9267578,25.7363281 C23.9267578,24.662104 24.1503884,23.8251983 24.5976562,23.2255859 C25.0449241,22.6259736 25.6611289,22.3261719 26.4462891,22.3261719 C27.2705119,22.3261719 27.8994119,22.6464812 28.3330078,23.2871094 L28.3916016,23.2871094 C28.3017574,22.7988257 28.2568359,22.3632832 28.2568359,21.9804688 L28.2568359,19.8828125 L30.0498047,19.8828125 L30.0498047,29 L28.6787109,29 L28.3330078,28.1503906 L28.2568359,28.1503906 C27.8505839,28.7949251 27.2314495,29.1171875 26.3994141,29.1171875 L26.3994141,29.1171875 Z M27.0263672,27.6933594 C27.4834007,27.6933594 27.8183583,27.5605482 28.03125,27.2949219 C28.2441417,27.0292955 28.3603515,26.5781282 28.3798828,25.9414062 L28.3798828,25.7480469 C28.3798828,25.0449184 28.2714855,24.5410171 28.0546875,24.2363281 C27.8378895,23.9316391 27.485354,23.7792969 26.9970703,23.7792969 C26.5986308,23.7792969 26.2890636,23.9482405 26.0683594,24.2861328 C25.8476551,24.6240251 25.7373047,25.1152312 25.7373047,25.7597656 C25.7373047,26.4043001 25.8486317,26.8876937 26.0712891,27.2099609 C26.2939464,27.5322282 26.6123026,27.6933594 27.0263672,27.6933594 L27.0263672,27.6933594 Z M35.5400391,23.7910156 L33.9931641,23.7910156 L33.9931641,29 L32.2060547,29 L32.2060547,23.7910156 L31.2216797,23.7910156 L31.2216797,22.9296875 L32.2060547,22.4492188 L32.2060547,21.96875 C32.2060547,21.2226525 32.3896466,20.6777361 32.7568359,20.3339844 C33.1240253,19.9902327 33.71191,19.8183594 34.5205078,19.8183594 C35.1376984,19.8183594 35.686521,19.9101553 36.1669922,20.09375 L35.7099609,21.40625 C35.3505841,21.2929682 35.0185562,21.2363281 34.7138672,21.2363281 C34.4599597,21.2363281 34.2763678,21.3115227 34.1630859,21.4619141 C34.0498041,21.6123054 33.9931641,21.8046863 33.9931641,22.0390625 L33.9931641,22.4492188 L35.5400391,22.4492188 L35.5400391,23.7910156 Z" id=".pdf" fill="#989898"></path>
            </g>
        </g>
    </g>
</svg>