<?xml version="1.0" encoding="UTF-8" standalone="no"?>
<svg width="466px" height="429px" viewBox="0 0 466 429" version="1.1" xmlns="http://www.w3.org/2000/svg" xmlns:xlink="http://www.w3.org/1999/xlink">
    <!-- Generator: Sketch 3.8.3 (29802) - http://www.bohemiancoding.com/sketch -->
    <title>phones</title>
    <desc>Created with Sketch.</desc>
    <defs></defs>
    <g id="Game" stroke="none" stroke-width="1" fill="none" fill-rule="evenodd">
        <g id="Artboard-21" transform="translate(-761.000000, -386.000000)" fill="#FF8244">
            <g id="phones" transform="translate(761.000000, 386.000000)">
                <path d="M244,31.0036036 C244,13.8807861 257.887094,0 274.999552,0 L435.000448,0 C452.121028,0 466,13.8782323 466,31.0036036 L466,397.996396 C466,415.119214 452.112906,429 435.000448,429 L274.999552,429 C257.878972,429 244,415.121768 244,397.996396 L244,31.0036036 Z M253,32 L457,32 L457,394 L253,394 L253,32 Z" id="Combined-Shape"></path>
                <path d="M0,29.0026084 C0,12.9849101 12.9916651,0 29.0035644,0 L178.996436,0 C195.014662,0 208,12.985291 208,29.0026084 L208,399.997392 C208,416.01509 195.008335,429 178.996436,429 L29.0035644,429 C12.9853381,429 0,416.014709 0,399.997392 L0,29.0026084 Z M11,50 L197,50 L197,379 L11,379 L11,50 Z" id="Combined-Shape"></path>
                <path d="M341.970771,178.334638 C334.776323,182.35291 329.961725,189.683759 329.961725,198.06118 L379.364752,198.06118 C379.364752,189.704206 374.573628,182.388703 367.408345,178.364121 L371.156969,171.601424 C371.446855,171.078455 371.264922,170.423396 370.742531,170.13383 C370.223757,169.846269 369.56799,170.037499 369.278323,170.560073 L365.491154,177.392307 C362.221591,175.90588 358.547092,175.071653 354.663239,175.071653 C350.8012,175.071653 347.14617,175.896535 343.890455,177.367322 L340.117135,170.560073 C339.827468,170.037499 339.171701,169.846269 338.652927,170.13383 C338.130536,170.423396 337.948603,171.078455 338.238489,171.601424 L341.970771,178.334638 Z M349.293344,240.670696 L349.293344,254.630468 C349.293344,257.595978 346.883126,260 343.92345,260 C340.957739,260 338.553556,257.597178 338.553556,254.630468 L338.553556,240.670696 L336.420308,240.670696 C332.853331,240.670696 329.961725,237.780885 329.961725,234.242061 L329.961725,200.933479 L379.364752,200.933479 L379.364752,234.242061 C379.364752,237.792498 376.495099,240.670696 372.906169,240.670696 L370.772921,240.670696 L370.772921,254.630468 C370.772921,257.595978 368.362703,260 365.403027,260 C362.437316,260 360.033133,257.597178 360.033133,254.630468 L360.033133,240.670696 L349.293344,240.670696 Z M316,204.155053 C316,201.189543 318.410218,198.785521 321.369894,198.785521 C324.335605,198.785521 326.739788,201.188343 326.739788,204.155053 L326.739788,227.780996 C326.739788,230.746507 324.32957,233.150529 321.369894,233.150529 C318.404184,233.150529 316,230.747707 316,227.780996 L316,204.155053 Z M382.586689,203.081075 C382.586689,200.115564 384.996907,197.711542 387.956583,197.711542 C390.922294,197.711542 393.326477,200.114364 393.326477,203.081075 L393.326477,226.707017 C393.326477,229.672528 390.916259,232.07655 387.956583,232.07655 C384.990872,232.07655 382.586689,229.673728 382.586689,226.707017 L382.586689,203.081075 Z M342.849471,191.267669 C344.628898,191.267669 346.071408,189.825159 346.071408,188.045732 C346.071408,186.266306 344.628898,184.823796 342.849471,184.823796 C341.070045,184.823796 339.627535,186.266306 339.627535,188.045732 C339.627535,189.825159 341.070045,191.267669 342.849471,191.267669 Z M366.477006,191.267669 C368.256432,191.267669 369.698942,189.825159 369.698942,188.045732 C369.698942,186.266306 368.256432,184.823796 366.477006,184.823796 C364.697579,184.823796 363.255069,186.266306 363.255069,188.045732 C363.255069,189.825159 364.697579,191.267669 366.477006,191.267669 Z" id="Android-Logo"></path>
                <path d="M140.219979,240.137325 C138.858909,243.281674 137.247847,246.176031 135.381236,248.837062 C132.836869,252.46473 130.753598,254.975765 129.148091,256.370167 C126.659278,258.658987 123.992692,259.831174 121.137222,259.897839 C119.087284,259.897839 116.615137,259.314523 113.737446,258.131225 C110.850311,256.953483 108.197058,256.370167 105.77102,256.370167 C103.226653,256.370167 100.497846,256.953483 97.5790456,258.131225 C94.6558006,259.314523 92.3008718,259.931171 90.5003706,259.99228 C87.7621201,260.108943 85.0327581,258.903424 82.308396,256.370167 C80.5695597,254.853547 78.3946254,252.253625 75.7891486,248.570403 C72.9936775,244.637189 70.6954136,240.076215 68.8949125,234.876373 C66.9666375,229.259876 66,223.821151 66,218.555755 C66,212.52427 67.3032939,207.322205 69.9137706,202.962893 C71.9653753,199.461332 74.6947372,196.699193 78.1107451,194.671477 C81.526753,192.64376 85.2177525,191.610458 89.1926324,191.544349 C91.3675666,191.544349 94.2197027,192.217106 97.76404,193.539289 C101.298378,194.865915 103.567753,195.538673 104.562723,195.538673 C105.30659,195.538673 107.827625,194.75203 112.101384,193.183744 C116.142929,191.729343 119.553937,191.127139 122.348297,191.364354 C129.92029,191.975447 135.609007,194.960357 139.392226,200.337972 C132.620209,204.441181 129.27031,210.18823 129.336975,217.560785 C129.398084,223.303389 131.481354,228.082133 135.575675,231.876463 C137.431174,233.637521 139.503334,234.998591 141.80882,235.965229 C141.308835,237.415185 140.781073,238.804032 140.219979,240.137325 L140.219979,240.137325 Z M122.853837,171.800501 C122.853837,176.301532 121.209442,180.504127 117.931764,184.394009 C113.976328,189.018314 109.192028,191.690456 104.003851,191.268802 C103.937742,190.728818 103.89941,190.160502 103.89941,189.563298 C103.89941,185.242317 105.780464,180.618012 109.120919,176.837016 C110.788646,174.922629 112.909693,173.330844 115.481838,172.061049 C118.048427,170.810198 120.476131,170.118441 122.759396,170 C122.82606,170.601704 122.853837,171.203464 122.853837,171.800446 L122.853837,171.800501 Z" id="Apple-Logo"></path>
            </g>
        </g>
    </g>
</svg>