<?xml version="1.0" encoding="UTF-8" standalone="no"?>
<svg width="23px" height="31px" viewBox="0 0 23 31" version="1.1" xmlns="http://www.w3.org/2000/svg" xmlns:xlink="http://www.w3.org/1999/xlink">
    <!-- Generator: Sketch 3.8.3 (29802) - http://www.bohemiancoding.com/sketch -->
    <title>Pin 2.0</title>
    <desc>Created with Sketch.</desc>
    <defs></defs>
    <g id="Game" stroke="none" stroke-width="1" fill="none" fill-rule="evenodd">
        <g id="Desktop-Copy-16" transform="translate(-752.000000, -247.000000)" fill="#FF8244">
            <g id="Messaging-Copy-9">
                <g id="Metaphor" transform="translate(554.000000, 227.000000)">
                    <g id="Check-in" transform="translate(180.000000, 0.000000)">
                        <g id="Pin-2.0" transform="translate(18.000000, 20.000000)">
                            <path d="M0.955686818,16.0702326 C2.72963237,21.2737711 11.5,31 11.5,31 C11.5,31 20.2633933,21.2737711 22.0397302,16.0806977 C22.54791,14.5950476 23,13.1164949 23,11.4807191 C23,5.14009303 17.8512746,0 11.5,0 C5.14872538,0 0,5.14009303 0,11.4807191 C0,13.1124442 0.450263083,14.5876664 0.955686818,16.0702326 Z M11.5,19 C15.6421356,19 19,15.6421356 19,11.5 C19,7.35786438 15.6421356,4 11.5,4 C7.35786438,4 4,7.35786438 4,11.5 C4,15.6421356 7.35786438,19 11.5,19 Z" id="Combined-Shape"></path>
                            <path d="M8.0000014,11.4929362 C7.99828908,13.4284111 9.56292722,14.9965695 11.4944313,14.9999944 C13.4276476,15.0034192 14.9974228,13.4386857 14.9999912,11.5057795 C15.0042721,9.57158893 13.4379216,8.00343047 11.5059895,8.00000561 C9.57320118,7.99658075 8.00342606,9.56174245 8.0000014,11.4929362 Z" id="Shape-Copy"></path>
                        </g>
                    </g>
                </g>
            </g>
        </g>
    </g>
</svg>