<?xml version="1.0" encoding="UTF-8" standalone="no"?>
<svg width="88px" height="100px" viewBox="0 0 88 100" version="1.1" xmlns="http://www.w3.org/2000/svg" xmlns:xlink="http://www.w3.org/1999/xlink">
    <!-- Generator: Sketch 3.8.3 (29802) - http://www.bohemiancoding.com/sketch -->
    <title>profile</title>
    <desc>Created with Sketch.</desc>
    <defs></defs>
    <g id="Game" stroke="none" stroke-width="1" fill="none" fill-rule="evenodd">
        <g id="Artboard-21" transform="translate(-876.000000, -451.000000)" fill="#FF8244">
            <g id="profile" transform="translate(876.000000, 451.000000)">
                <path d="M17.4408602,40.8817204 C24.8640423,40.8817204 30.8817204,34.8640423 30.8817204,27.4408602 C30.8817204,20.0176781 24.8640423,14 17.4408602,14 C10.0176781,14 4,20.0176781 4,27.4408602 C4,34.8640423 10.0176781,40.8817204 17.4408602,40.8817204 Z M0,54.5 C0,49.2532949 4.25452381,45 9.49349348,45 L24.5065065,45 C29.7496182,45 34,49.2521413 34,54.5 L34,64 L0,64 L0,54.5 Z M45,0 L87.2427035,0 L87.2427035,7.68049155 L45,7.68049155 L45,0 Z M45,14 L87.2427035,14 L87.2427035,21.6804916 L45,21.6804916 L45,14 Z M45,28 L87.2427035,28 L87.2427035,35.6804916 L45,35.6804916 L45,28 Z M45,46 L63,46 L63,70 L45,70 L45,46 Z M45,76 L63,76 L63,100 L45,100 L45,76 Z M69,46 L87,46 L87,70 L69,70 L69,46 Z M69,76 L87,76 L87,100 L69,100 L69,76 Z" id="Combined-Shape"></path>
            </g>
        </g>
    </g>
</svg>