<?xml version="1.0" encoding="UTF-8" standalone="no"?>
<svg width="30px" height="35px" viewBox="0 0 30 35" version="1.1" xmlns="http://www.w3.org/2000/svg" xmlns:xlink="http://www.w3.org/1999/xlink">
    <!-- Generator: Sketch 3.8.3 (29802) - http://www.bohemiancoding.com/sketch -->
    <title>Logo</title>
    <desc>Created with Sketch.</desc>
    <defs></defs>
    <g id="Game" stroke="none" stroke-width="1" fill="none" fill-rule="evenodd">
        <g id="Artboard-22-Copy" transform="translate(-145.000000, -46.000000)" fill="#FFFFFF">
            <g id="Logo" transform="translate(145.000000, 46.000000)">
                <g>
                    <g id="Group" transform="translate(7.857143, 0.000000)">
                        <path d="M7.17466019,4.85317191 C5.85961165,4.85084746 4.7915534,5.91312349 4.7892233,7.22382567 C4.78805825,8.53743341 5.85262136,9.60174334 7.16679612,9.6040678 C8.48213592,9.60639225 9.55019417,8.54440678 9.55194175,7.23254237 C9.55485437,5.9198063 8.48912621,4.85549637 7.17466019,4.85317191 L7.17466019,4.85317191 Z" id="Shape"></path>
                        <path d="M7.18194175,0.1031477 C3.2376699,0.0967554479 0.034368932,3.28271186 0.0276699029,7.21772397 C0.0215533981,11.1527361 7.15223301,19.1049879 7.15223301,19.1049879 C7.15223301,19.1049879 14.3082524,11.1753995 14.3132039,7.24009685 C14.3196117,3.3053753 11.1273786,0.109830508 7.18194175,0.1031477 L7.18194175,0.1031477 Z M7.16242718,11.979661 C4.53407767,11.9750121 2.40436893,9.8440678 2.40961165,7.22179177 C2.41368932,4.5977724 4.54980583,2.47409201 7.1784466,2.47903148 C9.80970874,2.48280872 11.9376699,4.6125908 11.933301,7.23661017 C11.9286408,9.85946731 9.7931068,11.9840194 7.16242718,11.979661 L7.16242718,11.979661 Z" id="Shape"></path>
                    </g>
                    <path d="M28.7675133,23.6169573 C27.4830473,18.6949234 25.9973191,15.4555045 22.5659599,14.5196208 C22.0428531,14.3772479 21.5514939,14.3083859 21.0592609,14.3066426 C20.7633385,14.3066426 14.8210084,22.1336643 14.8210084,22.1336643 C14.8210084,22.1336643 8.92731911,14.2857225 8.63401814,14.2857225 C8.14236766,14.2848508 7.64867834,14.3537128 7.12469775,14.495214 C3.68780455,15.4191849 2.19217348,18.6536643 0.894600666,23.5727927 C-0.610642052,29.2688702 -0.202292538,33.0902745 2.01333853,34.0563762 C2.37392105,34.2150203 2.75285309,34.295214 3.14139678,34.295214 C5.11295018,34.2989912 6.92867834,32.2340033 8.25566863,30.7257225 L8.6174162,30.3079016 C9.69916377,29.0509525 11.9613968,28.3318242 14.8230473,28.3358919 C17.9375133,28.341122 19.8487754,28.9556498 21.0237269,30.3308556 L21.3828531,30.7486765 C22.7031444,32.2598629 24.511591,34.3283375 26.4854745,34.331243 C26.876057,34.331243 27.2555715,34.2525021 27.6132414,34.0964731 C29.8320764,33.1370542 30.2526589,29.3185554 28.7675133,23.6169573 L28.7675133,23.6169573 Z M11.1333385,24.3790881 L8.79945504,24.3753108 L8.79566863,26.7052866 L6.73877542,26.7000566 L6.74256183,24.3718242 L4.40926086,24.3680469 L4.41246474,22.3158435 L6.74605698,22.3202019 L6.74984338,19.9925505 L8.80673659,19.9963278 L8.80295018,22.3236886 L11.1371249,22.3280469 L11.1333385,24.3790881 L11.1333385,24.3790881 Z M19.7820764,24.5481922 C19.0661541,24.5481922 18.4842123,23.9670784 18.4842123,23.252599 C18.4842123,22.5392818 19.0661541,21.958168 19.7820764,21.958168 C20.4977075,21.958168 21.0796492,22.5392818 21.0796492,23.252599 C21.0796492,23.9670784 20.4977075,24.5481922 19.7820764,24.5481922 L19.7820764,24.5481922 Z M22.4290667,27.1884827 C21.7131444,27.1884827 21.1312026,26.6073689 21.1312026,25.8934706 C21.1312026,25.1795723 21.7131444,24.5984585 22.4290667,24.5984585 C23.144989,24.5984585 23.727222,25.1795723 23.727222,25.8934706 C23.727222,26.6073689 23.144989,27.1884827 22.4290667,27.1884827 L22.4290667,27.1884827 Z M22.4290667,21.90703 C21.7131444,21.90703 21.1312026,21.3264973 21.1312026,20.6120179 C21.1312026,19.8987007 21.7131444,19.3175869 22.4290667,19.3175869 C23.144989,19.3175869 23.727222,19.8987007 23.727222,20.6120179 C23.727222,21.3264973 23.144989,21.90703 22.4290667,21.90703 L22.4290667,21.90703 Z M25.0763482,24.5481922 C24.3604259,24.5481922 23.7784842,23.9670784 23.7784842,23.252599 C23.7784842,22.5392818 24.3604259,21.958168 25.0763482,21.958168 C25.7919793,21.958168 26.3742123,22.5392818 26.3742123,23.252599 C26.3742123,23.9670784 25.7919793,24.5481922 25.0763482,24.5481922 L25.0763482,24.5481922 Z" id="Shape"></path>
                </g>
            </g>
        </g>
    </g>
</svg>