<?xml version="1.0" encoding="UTF-8" standalone="no"?>
<svg width="28px" height="18px" viewBox="0 0 28 18" version="1.1" xmlns="http://www.w3.org/2000/svg" xmlns:xlink="http://www.w3.org/1999/xlink">
    <!-- Generator: Sketch 3.8.2 (29753) - http://www.bohemiancoding.com/sketch -->
    <title>Combined Shape</title>
    <desc>Created with Sketch.</desc>
    <defs></defs>
    <g id="Game" stroke="none" stroke-width="1" fill="none" fill-rule="evenodd">
        <g id="Desktop-Copy-16" transform="translate(-260.000000, -747.000000)" fill="#DADADA">
            <g id="Group-2" transform="translate(42.000000, 54.000000)">
                <g id="Group-3" transform="translate(0.000000, 687.000000)">
                    <g id="Group-7">
                        <path d="M232.946415,18.0535218 L238.053459,12.9464782 L236.196352,11.0893714 L231.553585,15.7321383 L229.696478,13.8750316 L228.767925,12.9464782 L222.268051,19.4463519 L224.125158,21.3034587 L228.767925,16.6606917 L231.553585,19.4463519 L232.946415,18.0535218 Z M218,7.99508929 C218,6.8932319 218.899898,6 219.991244,6 L244.008756,6 C245.10849,6 246,6.8926228 246,7.99508929 L246,22.0049107 C246,23.1067681 245.100102,24 244.008756,24 L219.991244,24 C218.89151,24 218,23.1073772 218,22.0049107 L218,7.99508929 Z M239.910565,9.23226461 L239.964024,14.8570436 L234.285786,9.17880592 L239.910565,9.23226461 Z" id="Combined-Shape"></path>
                    </g>
                </g>
            </g>
        </g>
    </g>
</svg>